<?xml version="1.0" encoding="UTF-8" standalone="no"?>
<!-- Created with Inkscape (http://www.inkscape.org/) -->

<svg
   xmlns:dc="http://purl.org/dc/elements/1.1/"
   xmlns:cc="http://creativecommons.org/ns#"
   xmlns:rdf="http://www.w3.org/1999/02/22-rdf-syntax-ns#"
   xmlns:svg="http://www.w3.org/2000/svg"
   xmlns="http://www.w3.org/2000/svg"
   xmlns:sodipodi="http://sodipodi.sourceforge.net/DTD/sodipodi-0.dtd"
   xmlns:inkscape="http://www.inkscape.org/namespaces/inkscape"
   width="192.00002"
   height="192"
   viewBox="0 0 192.00002 192"
   id="svg2"
   version="1.1"
   inkscape:version="0.91 r13725"
   sodipodi:docname="logo.svg">
  <defs
     id="defs4" />
  <sodipodi:namedview
     id="base"
     pagecolor="#ffffff"
     bordercolor="#666666"
     borderopacity="1.0"
     inkscape:pageopacity="0.0"
     inkscape:pageshadow="2"
     inkscape:zoom="1.979899"
     inkscape:cx="-95.938527"
     inkscape:cy="97.437303"
     inkscape:document-units="px"
     inkscape:current-layer="layer1"
     showgrid="false"
     showguides="true"
     inkscape:guide-bbox="true"
     inkscape:snap-others="true"
     inkscape:object-paths="true"
     inkscape:snap-intersection-paths="true"
     inkscape:snap-smooth-nodes="true"
     inkscape:object-nodes="true"
     inkscape:snap-midpoints="true"
     inkscape:snap-object-midpoints="true"
     inkscape:snap-center="true"
     units="px"
     fit-margin-top="0"
     fit-margin-left="0"
     fit-margin-right="0"
     fit-margin-bottom="0"
     inkscape:window-width="2560"
     inkscape:window-height="1492"
     inkscape:window-x="0"
     inkscape:window-y="0"
     inkscape:window-maximized="1">
    <sodipodi:guide
       position="192.00001,12.810261"
       orientation="1,0"
       id="guide3347" />
  </sodipodi:namedview>
  <metadata
     id="metadata7">
    <rdf:RDF>
      <cc:Work
         rdf:about="">
        <dc:format>image/svg+xml</dc:format>
        <dc:type
           rdf:resource="http://purl.org/dc/dcmitype/StillImage" />
        <dc:title />
      </cc:Work>
    </rdf:RDF>
  </metadata>
  <g
     inkscape:label="Layer 1"
     inkscape:groupmode="layer"
     id="layer1"
     transform="translate(-239.33513,-218.5936)">
    <rect
       style="fill:#b0d1ff;fill-opacity:1;stroke:none;stroke-width:0.62599999;stroke-miterlimit:4;stroke-dasharray:1.878, 1.87799999999999989;stroke-dashoffset:0;stroke-opacity:1"
       id="rect3336"
       width="192"
       height="192"
       x="239.33514"
       y="218.5936" />
    <g
       style="font-style:normal;font-weight:normal;font-size:40px;line-height:125%;font-family:Sans;letter-spacing:0px;word-spacing:0px;fill:#ffffff;fill-opacity:1;stroke:none;stroke-width:1px;stroke-linecap:butt;stroke-linejoin:miter;stroke-opacity:1"
       id="text4146"
       transform="matrix(3.495875,0,0,3.495875,618.05554,-712.1489)">
      <path
         d="m -92.083511,284.06393 q -0.917969,-0.42968 -1.835938,-0.625 -0.898437,-0.21484 -1.816406,-0.21484 -2.695313,0 -4.160156,1.73828 -1.445309,1.71875 -1.445309,4.94141 l 0,10.07812 -6.99219,0 0,-21.875 6.99219,0 0,3.59375 q 1.347652,-2.14843 3.085934,-3.125 1.757812,-0.99609 4.199218,-0.99609 0.351563,0 0.761719,0.0391 0.410156,0.0195 1.191406,0.11719 l 0.01953,6.32812 z"
         style="font-style:normal;font-variant:normal;font-weight:bold;font-stretch:normal;font-family:'DejaVu Sans';-inkscape-font-specification:'DejaVu Sans Bold';fill:#ffffff;fill-opacity:1"
         id="path4151"
         inkscape:connector-curvature="0" />
      <path
         d="m -68.294449,281.73972 q 1.328125,-2.03125 3.144531,-3.08594 1.835938,-1.07422 4.023438,-1.07422 3.769531,0 5.742187,2.32422 1.972657,2.32422 1.972657,6.75781 l 0,13.32031 -7.03125,0 0,-11.40625 q 0.01953,-0.2539 0.01953,-0.52734 0.01953,-0.27344 0.01953,-0.78125 0,-2.32422 -0.683594,-3.35938 -0.683593,-1.05468 -2.207031,-1.05468 -1.992187,0 -3.085937,1.64062 -1.074219,1.64063 -1.113282,4.7461 l 0,10.74218 -7.03125,0 0,-11.40625 q 0,-3.63281 -0.625,-4.66797 -0.625,-1.05468 -2.226562,-1.05468 -2.011719,0 -3.105469,1.66015 -1.09375,1.64063 -1.09375,4.70703 l 0,10.76172 -7.03125,0 0,-21.875 7.03125,0 0,3.20313 q 1.289063,-1.85547 2.949219,-2.79297 1.679687,-0.9375 3.691406,-0.9375 2.265625,0 4.003906,1.09375 1.738282,1.09375 2.636719,3.06641 z"
         style="font-style:normal;font-variant:normal;font-weight:bold;font-stretch:normal;font-family:'DejaVu Sans';-inkscape-font-specification:'DejaVu Sans Bold';fill:#ffffff;fill-opacity:1"
         id="path4153"
         inkscape:connector-curvature="0" />
    </g>
  </g>
</svg>
